<?xml version="1.0" encoding="UTF-8" standalone="no"?>
<!-- Generator: Adobe Illustrator 19.0.0, SVG Export Plug-In . SVG Version: 6.00 Build 0)  -->

<svg
   xmlns:dc="http://purl.org/dc/elements/1.1/"
   xmlns:cc="http://creativecommons.org/ns#"
   xmlns:rdf="http://www.w3.org/1999/02/22-rdf-syntax-ns#"
   xmlns:svg="http://www.w3.org/2000/svg"
   xmlns="http://www.w3.org/2000/svg"
   xmlns:sodipodi="http://sodipodi.sourceforge.net/DTD/sodipodi-0.dtd"
   xmlns:inkscape="http://www.inkscape.org/namespaces/inkscape"
   version="1.1"
   id="Capa_1"
   x="0px"
   y="0px"
   viewBox="0 0 512 512"
   style="enable-background:new 0 0 512 512;"
   xml:space="preserve"
   inkscape:version="0.91 r13725"
   sodipodi:docname="move-icon.svg"><metadata
     id="metadata4177"><rdf:RDF><cc:Work
         rdf:about=""><dc:format>image/svg+xml</dc:format><dc:type
           rdf:resource="http://purl.org/dc/dcmitype/StillImage" /></cc:Work></rdf:RDF></metadata><defs
     id="defs4175" /><sodipodi:namedview
     pagecolor="#ffffff"
     bordercolor="#666666"
     borderopacity="1"
     objecttolerance="10"
     gridtolerance="10"
     guidetolerance="10"
     inkscape:pageopacity="0"
     inkscape:pageshadow="2"
     inkscape:window-width="1618"
     inkscape:window-height="1027"
     id="namedview4173"
     showgrid="false"
     inkscape:zoom="1.6171875"
     inkscape:cx="256"
     inkscape:cy="256"
     inkscape:window-x="1912"
     inkscape:window-y="22"
     inkscape:window-maximized="1"
     inkscape:current-layer="Capa_1" /><g
     id="g4137"
     transform="matrix(0.62499939,0,0,0.62500214,96.000156,96.000154)"><g
       id="g4139"><path
         d="m 508.875,248.458 -74.667,-74.667 c -3.042,-3.052 -7.646,-3.948 -11.625,-2.313 -3.979,1.646 -6.583,5.542 -6.583,9.854 l 0,32 c 0,2.833 1.125,5.542 3.125,7.542 l 13.792,13.792 -155.584,0 0,-155.583 13.792,13.792 c 2,2 4.708,3.125 7.542,3.125 l 32,0 c 4.313,0 8.208,-2.594 9.854,-6.583 1.646,-3.99 0.729,-8.573 -2.313,-11.625 L 263.542,3.125 c -4.167,-4.167 -10.917,-4.167 -15.083,0 l -74.667,74.667 c -3.042,3.052 -3.958,7.635 -2.313,11.625 1.646,3.99 5.542,6.583 9.854,6.583 l 32,0 c 2.833,0 5.542,-1.125 7.542,-3.125 l 13.792,-13.792 0,155.583 -155.584,0 13.792,-13.792 c 2,-2 3.125,-4.708 3.125,-7.542 l 0,-32 c 0,-4.313 -2.604,-8.208 -6.583,-9.854 -3.958,-1.656 -8.583,-0.75 -11.625,2.313 L 3.125,248.458 c -4.167,4.167 -4.167,10.917 0,15.083 l 74.667,74.667 c 2.042,2.042 4.771,3.125 7.542,3.125 1.375,0 2.771,-0.26 4.083,-0.813 3.979,-1.646 6.583,-5.542 6.583,-9.854 l 0,-32 c 0,-2.833 -1.125,-5.542 -3.125,-7.542 l -13.792,-13.792 155.583,0 0,155.583 -13.792,-13.792 c -2,-2 -4.708,-3.125 -7.542,-3.125 l -32,0 c -4.313,0 -8.208,2.594 -9.854,6.583 -1.646,3.99 -0.729,8.573 2.313,11.625 l 74.667,74.667 c 2.083,2.083 4.813,3.125 7.542,3.125 2.729,0 5.458,-1.042 7.542,-3.125 l 74.667,-74.667 c 3.042,-3.052 3.958,-7.635 2.313,-11.625 -1.646,-3.99 -5.542,-6.583 -9.854,-6.583 l -32,0 c -2.833,0 -5.542,1.125 -7.542,3.125 l -13.792,13.792 0,-155.582 155.583,0 -13.792,13.792 c -2,2 -3.125,4.708 -3.125,7.542 l 0,32 c 0,4.313 2.604,8.208 6.583,9.854 1.313,0.552 2.708,0.813 4.083,0.813 2.771,0 5.5,-1.083 7.542,-3.125 l 74.667,-74.667 c 4.167,-4.167 4.167,-10.917 0,-15.084 z"
         id="path4141"
         inkscape:connector-curvature="0" /></g></g><g
     id="g4143"
     transform="matrix(0.62499939,0,0,0.62500214,-9.3750154e-5,191.99816)" /><g
     id="g4145"
     transform="matrix(0.62499939,0,0,0.62500214,-9.3750154e-5,191.99816)" /><g
     id="g4147"
     transform="matrix(0.62499939,0,0,0.62500214,-9.3750154e-5,191.99816)" /><g
     id="g4149"
     transform="matrix(0.62499939,0,0,0.62500214,-9.3750154e-5,191.99816)" /><g
     id="g4151"
     transform="matrix(0.62499939,0,0,0.62500214,-9.3750154e-5,191.99816)" /><g
     id="g4153"
     transform="matrix(0.62499939,0,0,0.62500214,-9.3750154e-5,191.99816)" /><g
     id="g4155"
     transform="matrix(0.62499939,0,0,0.62500214,-9.3750154e-5,191.99816)" /><g
     id="g4157"
     transform="matrix(0.62499939,0,0,0.62500214,-9.3750154e-5,191.99816)" /><g
     id="g4159"
     transform="matrix(0.62499939,0,0,0.62500214,-9.3750154e-5,191.99816)" /><g
     id="g4161"
     transform="matrix(0.62499939,0,0,0.62500214,-9.3750154e-5,191.99816)" /><g
     id="g4163"
     transform="matrix(0.62499939,0,0,0.62500214,-9.3750154e-5,191.99816)" /><g
     id="g4165"
     transform="matrix(0.62499939,0,0,0.62500214,-9.3750154e-5,191.99816)" /><g
     id="g4167"
     transform="matrix(0.62499939,0,0,0.62500214,-9.3750154e-5,191.99816)" /><g
     id="g4169"
     transform="matrix(0.62499939,0,0,0.62500214,-9.3750154e-5,191.99816)" /><g
     id="g4171"
     transform="matrix(0.62499939,0,0,0.62500214,-9.3750154e-5,191.99816)" /></svg>