<?xml version="1.0" encoding="UTF-8" standalone="no"?>
<!-- Generator: Adobe Illustrator 18.1.1, SVG Export Plug-In . SVG Version: 6.00 Build 0)  -->

<svg
   xmlns:dc="http://purl.org/dc/elements/1.1/"
   xmlns:cc="http://creativecommons.org/ns#"
   xmlns:rdf="http://www.w3.org/1999/02/22-rdf-syntax-ns#"
   xmlns:svg="http://www.w3.org/2000/svg"
   xmlns="http://www.w3.org/2000/svg"
   xmlns:sodipodi="http://sodipodi.sourceforge.net/DTD/sodipodi-0.dtd"
   xmlns:inkscape="http://www.inkscape.org/namespaces/inkscape"
   version="1.1"
   id="Capa_1"
   x="0px"
   y="0px"
   viewBox="0 0 463.721 463.721"
   style="enable-background:new 0 0 463.721 463.721;"
   xml:space="preserve"
   inkscape:version="0.91 r13725"
   sodipodi:docname="select-icon.svg"><metadata
     id="metadata4177"><rdf:RDF><cc:Work
         rdf:about=""><dc:format>image/svg+xml</dc:format><dc:type
           rdf:resource="http://purl.org/dc/dcmitype/StillImage" /><dc:title></dc:title></cc:Work></rdf:RDF></metadata><defs
     id="defs4175" /><sodipodi:namedview
     pagecolor="#ffffff"
     bordercolor="#666666"
     borderopacity="1"
     objecttolerance="10"
     gridtolerance="10"
     guidetolerance="10"
     inkscape:pageopacity="0"
     inkscape:pageshadow="2"
     inkscape:window-width="1618"
     inkscape:window-height="1027"
     id="namedview4173"
     showgrid="false"
     inkscape:zoom="1.7855564"
     inkscape:cx="236.65444"
     inkscape:cy="231.8605"
     inkscape:window-x="1912"
     inkscape:window-y="22"
     inkscape:window-maximized="1"
     inkscape:current-layer="Capa_1" /><g
     id="g4137"
     transform="matrix(0.62403007,0,0,0.62402907,87.172437,87.533748)"><g
       id="g4139"><path
         d="m 407.453,224.871 c 0.85,-6.517 -1.983,-13.317 -7.65,-16.717 L 82.186,2.737 c -5.1,-3.4 -11.9,-3.683 -17.283,-0.567 -5.383,3.117 -8.783,8.783 -8.783,15.017 l 0,363.233 c 0,6.517 3.683,12.183 9.35,15.3 5.667,2.833 12.75,2.267 17.85,-1.7 l 90.1,-67.433 82.45,129.2 c 3.117,5.1 8.783,7.933 14.45,7.933 2.833,0 5.95,-0.85 8.5,-2.267 l 84.15,-48.733 c 3.967,-2.267 6.8,-6.233 7.933,-10.767 1.133,-4.533 0.283,-9.35 -2.267,-13.033 l -76.783,-120.983 103.7,-29.183 c 6.233,-1.983 11.05,-7.367 11.9,-13.883 z m -147.05,16.433 c -5.1,1.417 -9.35,5.383 -11.333,10.2 -1.983,5.1 -1.417,10.767 1.417,15.3 L 329.82,392.037 275.137,423.77 192.12,292.87 c -2.55,-3.967 -6.517,-6.8 -11.333,-7.65 -1.133,-0.283 -1.983,-0.283 -3.117,-0.283 -3.683,0 -7.083,1.133 -10.2,3.4 l -77.633,58.083 0,-298.066 260.1,168.017 -89.534,24.933 z"
         id="path4141"
         inkscape:connector-curvature="0" /></g></g><g
     id="g4143"
     transform="matrix(0.62402907,0,0,0.62402907,86.809489,87.533748)" /><g
     id="g4145"
     transform="matrix(0.62402907,0,0,0.62402907,86.809489,87.533748)" /><g
     id="g4147"
     transform="matrix(0.62402907,0,0,0.62402907,86.809489,87.533748)" /><g
     id="g4149"
     transform="matrix(0.62402907,0,0,0.62402907,86.809489,87.533748)" /><g
     id="g4151"
     transform="matrix(0.62402907,0,0,0.62402907,86.809489,87.533748)" /><g
     id="g4153"
     transform="matrix(0.62402907,0,0,0.62402907,86.809489,87.533748)" /><g
     id="g4155"
     transform="matrix(0.62402907,0,0,0.62402907,86.809489,87.533748)" /><g
     id="g4157"
     transform="matrix(0.62402907,0,0,0.62402907,86.809489,87.533748)" /><g
     id="g4159"
     transform="matrix(0.62402907,0,0,0.62402907,86.809489,87.533748)" /><g
     id="g4161"
     transform="matrix(0.62402907,0,0,0.62402907,86.809489,87.533748)" /><g
     id="g4163"
     transform="matrix(0.62402907,0,0,0.62402907,86.809489,87.533748)" /><g
     id="g4165"
     transform="matrix(0.62402907,0,0,0.62402907,86.809489,87.533748)" /><g
     id="g4167"
     transform="matrix(0.62402907,0,0,0.62402907,86.809489,87.533748)" /><g
     id="g4169"
     transform="matrix(0.62402907,0,0,0.62402907,86.809489,87.533748)" /><g
     id="g4171"
     transform="matrix(0.62402907,0,0,0.62402907,86.809489,87.533748)" /></svg>