<?xml version="1.0" encoding="UTF-8" standalone="no"?>
<!-- Generator: Adobe Illustrator 19.0.0, SVG Export Plug-In . SVG Version: 6.00 Build 0)  -->

<svg
   xmlns:dc="http://purl.org/dc/elements/1.1/"
   xmlns:cc="http://creativecommons.org/ns#"
   xmlns:rdf="http://www.w3.org/1999/02/22-rdf-syntax-ns#"
   xmlns:svg="http://www.w3.org/2000/svg"
   xmlns="http://www.w3.org/2000/svg"
   xmlns:sodipodi="http://sodipodi.sourceforge.net/DTD/sodipodi-0.dtd"
   xmlns:inkscape="http://www.inkscape.org/namespaces/inkscape"
   version="1.1"
   id="Layer_1"
   x="0px"
   y="0px"
   viewBox="0 0 512.003 512.003"
   style="enable-background:new 0 0 512.003 512.003;"
   xml:space="preserve"
   inkscape:version="0.91 r13725"
   sodipodi:docname="zoom-out-icon.svg"><metadata
     id="metadata4189"><rdf:RDF><cc:Work
         rdf:about=""><dc:format>image/svg+xml</dc:format><dc:type
           rdf:resource="http://purl.org/dc/dcmitype/StillImage" /></cc:Work></rdf:RDF></metadata><defs
     id="defs4187" /><sodipodi:namedview
     pagecolor="#ffffff"
     bordercolor="#666666"
     borderopacity="1"
     objecttolerance="10"
     gridtolerance="10"
     guidetolerance="10"
     inkscape:pageopacity="0"
     inkscape:pageshadow="2"
     inkscape:window-width="1618"
     inkscape:window-height="1027"
     id="namedview4185"
     showgrid="false"
     inkscape:zoom="1.6171781"
     inkscape:cx="256.0015"
     inkscape:cy="256.0015"
     inkscape:window-x="1912"
     inkscape:window-y="22"
     inkscape:window-maximized="1"
     inkscape:current-layer="Layer_1" /><g
     id="g4191"
     transform="matrix(0.62499924,0,0,0.625,95.999766,96.002366)"><g
       id="g4137"><g
         id="g4139"><path
           id="path4141"
           d="M 457.678,54.323 C 422.648,19.293 376.074,0.001 326.535,0.001 c -49.539,0 -96.113,19.292 -131.143,54.322 -35.03,35.03 -54.322,81.604 -54.322,131.144 0,45.443 16.243,88.38 45.965,122.211 l -23.577,23.576 -23.338,-23.338 c -2.292,-2.292 -5.403,-3.581 -8.645,-3.581 -3.242,0 -6.352,1.289 -8.645,3.581 L 16.801,413.946 c -22.401,22.402 -22.401,58.853 0.001,81.255 11.201,11.2 25.913,16.8 40.627,16.8 14.714,0 29.426,-5.601 40.627,-16.8 L 204.085,389.172 c 4.774,-4.774 4.774,-12.515 0,-17.291 l -23.338,-23.338 23.577,-23.576 c 33.831,29.722 76.77,45.965 122.211,45.965 49.541,0 96.113,-19.292 131.144,-54.322 35.029,-35.03 54.322,-81.604 54.322,-131.144 0,-49.54 -19.293,-96.113 -54.323,-131.143 z M 80.765,477.909 c -12.867,12.869 -33.806,12.869 -46.674,0 -12.867,-12.867 -12.867,-33.806 0,-46.675 l 59.874,-59.874 46.674,46.675 -59.874,59.874 z m 77.163,-77.163 -46.675,-46.675 20.22,-20.22 46.675,46.675 -20.22,20.22 z M 440.389,299.32 c -30.411,30.411 -70.845,47.16 -113.854,47.16 -43.009,0 -83.442,-16.749 -113.854,-47.16 -30.412,-30.411 -47.16,-70.845 -47.16,-113.854 0,-43.009 16.749,-83.442 47.16,-113.854 30.411,-30.411 70.845,-47.16 113.854,-47.16 43.009,0 83.442,16.749 113.854,47.16 62.778,62.78 62.778,164.929 0,227.708 z"
           inkscape:connector-curvature="0" /></g></g><g
       id="g4143"><g
         id="g4145"><path
           id="path4147"
           d="m 417.151,94.85 c -49.966,-49.966 -131.267,-49.967 -181.233,0 -24.204,24.204 -37.535,56.386 -37.535,90.616 0,34.231 13.331,66.411 37.535,90.616 24.983,24.983 57.799,37.474 90.616,37.474 32.817,0 65.633,-12.492 90.616,-37.474 24.204,-24.206 37.534,-56.386 37.534,-90.616 10e-4,-34.23 -13.329,-66.412 -37.533,-90.616 z M 399.86,258.793 c -40.433,40.433 -106.22,40.433 -146.653,0 -19.587,-19.587 -30.373,-45.627 -30.373,-73.327 0,-27.7 10.787,-53.74 30.373,-73.327 20.216,-20.216 46.772,-30.324 73.327,-30.324 26.555,0 53.109,10.108 73.327,30.324 19.587,19.587 30.373,45.626 30.373,73.327 0,27.698 -10.787,53.74 -30.374,73.327 z"
           inkscape:connector-curvature="0" /></g></g><g
       id="g4149"><g
         id="g4151"><path
           id="path4153"
           d="m 366.408,173.24 -79.745,0 c -6.752,0 -12.226,5.475 -12.226,12.226 0,6.751 5.473,12.226 12.226,12.226 l 79.745,0 c 6.752,0 12.226,-5.475 12.226,-12.226 0,-6.751 -5.474,-12.226 -12.226,-12.226 z"
           inkscape:connector-curvature="0" /></g></g><g
       id="g4155" /><g
       id="g4157" /><g
       id="g4159" /><g
       id="g4161" /><g
       id="g4163" /><g
       id="g4165" /><g
       id="g4167" /><g
       id="g4169" /><g
       id="g4171" /><g
       id="g4173" /><g
       id="g4175" /><g
       id="g4177" /><g
       id="g4179" /><g
       id="g4181" /><g
       id="g4183" /></g></svg>