<?xml version="1.0" encoding="UTF-8" standalone="no"?>
<!-- Generator: Adobe Illustrator 19.0.0, SVG Export Plug-In . SVG Version: 6.00 Build 0)  -->

<svg
   xmlns:dc="http://purl.org/dc/elements/1.1/"
   xmlns:cc="http://creativecommons.org/ns#"
   xmlns:rdf="http://www.w3.org/1999/02/22-rdf-syntax-ns#"
   xmlns:svg="http://www.w3.org/2000/svg"
   xmlns="http://www.w3.org/2000/svg"
   xmlns:sodipodi="http://sodipodi.sourceforge.net/DTD/sodipodi-0.dtd"
   xmlns:inkscape="http://www.inkscape.org/namespaces/inkscape"
   version="1.1"
   id="Layer_1"
   x="0px"
   y="0px"
   viewBox="0 0 512 512"
   style="enable-background:new 0 0 512 512;"
   xml:space="preserve"
   inkscape:version="0.91 r13725"
   sodipodi:docname="zoom-in-icon.svg"><metadata
     id="metadata4189"><rdf:RDF><cc:Work
         rdf:about=""><dc:format>image/svg+xml</dc:format><dc:type
           rdf:resource="http://purl.org/dc/dcmitype/StillImage" /></cc:Work></rdf:RDF></metadata><defs
     id="defs4187" /><sodipodi:namedview
     pagecolor="#ffffff"
     bordercolor="#666666"
     borderopacity="1"
     objecttolerance="10"
     gridtolerance="10"
     guidetolerance="10"
     inkscape:pageopacity="0"
     inkscape:pageshadow="2"
     inkscape:window-width="1618"
     inkscape:window-height="1027"
     id="namedview4185"
     showgrid="false"
     inkscape:zoom="1.6171875"
     inkscape:cx="256"
     inkscape:cy="256"
     inkscape:window-x="1912"
     inkscape:window-y="22"
     inkscape:window-maximized="1"
     inkscape:current-layer="Layer_1" /><g
     id="g4191"
     transform="matrix(0.625,0,0,0.62500107,95.999844,95.999452)"><g
       id="g4137"><g
         id="g4139"><path
           id="path4141"
           d="m 457.677,54.323 c -72.434,-72.431 -190.289,-72.428 -262.721,0 -69.298,69.301 -72.285,180.173 -8.982,253.07 l -22.129,22.129 -22.547,-22.547 c -5.146,-5.144 -13.486,-5.144 -18.634,0 L 17.029,412.609 c -22.705,22.706 -22.705,59.652 0,82.361 11.354,11.354 26.269,17.03 41.18,17.03 14.913,0 29.827,-5.677 41.181,-17.029 L 205.025,389.336 c 5.145,-5.145 5.145,-13.488 0,-18.634 l -22.548,-22.547 22.129,-22.129 c 34.801,30.221 78.253,45.341 121.711,45.341 47.571,0 95.144,-18.108 131.36,-54.323 72.431,-72.434 72.431,-190.289 0,-262.721 z M 80.756,476.337 c -12.433,12.432 -32.661,12.435 -45.095,0 -12.434,-12.432 -12.434,-32.663 0,-45.095 l 58.947,-58.947 45.095,45.095 -58.947,58.947 z m 77.581,-77.58 -45.095,-45.095 18.738,-18.738 45.094,45.094 -18.737,18.739 z M 439.044,298.41 c -62.158,62.156 -163.297,62.158 -225.455,0 -62.158,-62.158 -62.158,-163.297 0,-225.455 31.083,-31.083 71.897,-46.618 112.729,-46.618 40.818,0 81.652,15.543 112.726,46.618 62.157,62.158 62.157,163.298 0,225.455 z"
           inkscape:connector-curvature="0" /></g></g><g
       id="g4143"><g
         id="g4145"><path
           id="path4147"
           d="M 417.3,94.699 C 392.998,70.397 360.685,57.012 326.316,57.012 c -34.368,0 -66.68,13.385 -90.983,37.687 -24.303,24.302 -37.687,56.615 -37.687,90.984 0,34.368 13.385,66.68 37.687,90.983 24.302,24.303 56.615,37.688 90.983,37.688 34.369,0 66.681,-13.385 90.984,-37.688 24.302,-24.302 37.688,-56.615 37.688,-90.983 -0.002,-34.368 -13.386,-66.68 -37.688,-90.984 z m -18.634,163.334 c -19.326,19.327 -45.02,29.97 -72.351,29.97 -27.329,0 -53.024,-10.643 -72.349,-29.97 -19.327,-19.326 -29.97,-45.02 -29.97,-72.349 0,-27.331 10.643,-53.025 29.97,-72.351 19.325,-19.327 45.02,-29.97 72.349,-29.97 27.331,0 53.025,10.643 72.351,29.97 19.327,19.326 29.97,45.02 29.97,72.351 0,27.329 -10.643,53.024 -29.97,72.349 z"
           inkscape:connector-curvature="0" /></g></g><g
       id="g4149"><g
         id="g4151"><path
           id="path4153"
           d="m 366.04,172.507 -26.548,0 0,-26.548 c 0,-7.275 -5.9,-13.175 -13.175,-13.175 -7.275,0 -13.175,5.9 -13.175,13.175 l 0,26.548 -26.549,0 c -7.277,0 -13.175,5.9 -13.175,13.175 0,7.277 5.899,13.175 13.175,13.175 l 26.549,0 0,26.549 c 0,7.277 5.9,13.175 13.175,13.175 7.275,0 13.175,-5.899 13.175,-13.175 l 0,-26.549 26.548,0 c 7.275,0 13.175,-5.899 13.175,-13.175 0,-7.276 -5.898,-13.175 -13.175,-13.175 z"
           inkscape:connector-curvature="0" /></g></g><g
       id="g4155" /><g
       id="g4157" /><g
       id="g4159" /><g
       id="g4161" /><g
       id="g4163" /><g
       id="g4165" /><g
       id="g4167" /><g
       id="g4169" /><g
       id="g4171" /><g
       id="g4173" /><g
       id="g4175" /><g
       id="g4177" /><g
       id="g4179" /><g
       id="g4181" /><g
       id="g4183" /></g></svg>